solid OpenSCAD_Model
  facet normal 0.900969 0.433884 0
    outer loop
      vertex 2 0 2.5
      vertex 1.24698 1.56366 -2.5
      vertex 1.24698 1.56366 2.5
    endloop
  endfacet
  facet normal 0.900969 0.433884 0
    outer loop
      vertex 1.24698 1.56366 -2.5
      vertex 2 0 2.5
      vertex 2 0 -2.5
    endloop
  endfacet
  facet normal 0.222521 0.974928 -0
    outer loop
      vertex 1.24698 1.56366 -2.5
      vertex -0.445042 1.94986 2.5
      vertex 1.24698 1.56366 2.5
    endloop
  endfacet
  facet normal 0.222521 0.974928 0
    outer loop
      vertex -0.445042 1.94986 2.5
      vertex 1.24698 1.56366 -2.5
      vertex -0.445042 1.94986 -2.5
    endloop
  endfacet
  facet normal -0.62349 0.781831 0
    outer loop
      vertex -0.445042 1.94986 -2.5
      vertex -1.80194 0.867767 2.5
      vertex -0.445042 1.94986 2.5
    endloop
  endfacet
  facet normal -0.62349 0.781831 0
    outer loop
      vertex -1.80194 0.867767 2.5
      vertex -0.445042 1.94986 -2.5
      vertex -1.80194 0.867767 -2.5
    endloop
  endfacet
  facet normal -1 0 0
    outer loop
      vertex -1.80194 -0.867767 -2.5
      vertex -1.80194 0.867767 2.5
      vertex -1.80194 0.867767 -2.5
    endloop
  endfacet
  facet normal -1 -0 0
    outer loop
      vertex -1.80194 0.867767 2.5
      vertex -1.80194 -0.867767 -2.5
      vertex -1.80194 -0.867767 2.5
    endloop
  endfacet
  facet normal -0.62349 -0.781831 0
    outer loop
      vertex -1.80194 -0.867767 -2.5
      vertex -0.445042 -1.94986 2.5
      vertex -1.80194 -0.867767 2.5
    endloop
  endfacet
  facet normal -0.62349 -0.781831 -0
    outer loop
      vertex -0.445042 -1.94986 2.5
      vertex -1.80194 -0.867767 -2.5
      vertex -0.445042 -1.94986 -2.5
    endloop
  endfacet
  facet normal 0.222521 -0.974928 0
    outer loop
      vertex -0.445042 -1.94986 -2.5
      vertex 1.24698 -1.56366 2.5
      vertex -0.445042 -1.94986 2.5
    endloop
  endfacet
  facet normal 0.222521 -0.974928 0
    outer loop
      vertex 1.24698 -1.56366 2.5
      vertex -0.445042 -1.94986 -2.5
      vertex 1.24698 -1.56366 -2.5
    endloop
  endfacet
  facet normal 0.900969 -0.433884 0
    outer loop
      vertex 1.24698 -1.56366 2.5
      vertex 2 0 -2.5
      vertex 2 0 2.5
    endloop
  endfacet
  facet normal 0.900969 -0.433884 0
    outer loop
      vertex 2 0 -2.5
      vertex 1.24698 -1.56366 2.5
      vertex 1.24698 -1.56366 -2.5
    endloop
  endfacet
  facet normal 0 0 -1
    outer loop
      vertex 1.24698 -1.56366 -2.5
      vertex 1.24698 1.56366 -2.5
      vertex 2 0 -2.5
    endloop
  endfacet
  facet normal 0 0 -1
    outer loop
      vertex -0.445042 -1.94986 -2.5
      vertex 1.24698 1.56366 -2.5
      vertex 1.24698 -1.56366 -2.5
    endloop
  endfacet
  facet normal 0 0 -1
    outer loop
      vertex -0.445042 -1.94986 -2.5
      vertex -0.445042 1.94986 -2.5
      vertex 1.24698 1.56366 -2.5
    endloop
  endfacet
  facet normal 0 0 -1
    outer loop
      vertex -1.80194 -0.867767 -2.5
      vertex -0.445042 1.94986 -2.5
      vertex -0.445042 -1.94986 -2.5
    endloop
  endfacet
  facet normal 0 0 -1
    outer loop
      vertex -0.445042 1.94986 -2.5
      vertex -1.80194 -0.867767 -2.5
      vertex -1.80194 0.867767 -2.5
    endloop
  endfacet
  facet normal 0 0 1
    outer loop
      vertex 1.24698 1.56366 2.5
      vertex 1.24698 -1.56366 2.5
      vertex 2 0 2.5
    endloop
  endfacet
  facet normal 0 0 1
    outer loop
      vertex -0.445042 1.94986 2.5
      vertex 1.24698 -1.56366 2.5
      vertex 1.24698 1.56366 2.5
    endloop
  endfacet
  facet normal 0 0 1
    outer loop
      vertex -0.445042 1.94986 2.5
      vertex -0.445042 -1.94986 2.5
      vertex 1.24698 -1.56366 2.5
    endloop
  endfacet
  facet normal -0 0 1
    outer loop
      vertex -1.80194 0.867767 2.5
      vertex -0.445042 -1.94986 2.5
      vertex -0.445042 1.94986 2.5
    endloop
  endfacet
  facet normal 0 0 1
    outer loop
      vertex -0.445042 -1.94986 2.5
      vertex -1.80194 0.867767 2.5
      vertex -1.80194 -0.867767 2.5
    endloop
  endfacet
endsolid OpenSCAD_Model
